<mxfile host="Electron" modified="2023-04-20T15:13:42.226Z" agent="Mozilla/5.0 (Macintosh; Intel Mac OS X 10_15_7) AppleWebKit/537.36 (KHTML, like Gecko) draw.io/21.1.2 Chrome/106.0.5249.199 Electron/21.4.3 Safari/537.36" etag="CqufsQDNUGigOYQ9K_X8" version="21.1.2" type="device">
  <diagram id="C5RBs43oDa-KdzZeNtuy" name="AI model">
    <mxGraphModel dx="1193" dy="843" grid="1" gridSize="10" guides="1" tooltips="1" connect="1" arrows="1" fold="1" page="1" pageScale="1" pageWidth="827" pageHeight="1169" math="0" shadow="0">
      <root>
        <mxCell id="WIyWlLk6GJQsqaUBKTNV-0" />
        <mxCell id="WIyWlLk6GJQsqaUBKTNV-1" parent="WIyWlLk6GJQsqaUBKTNV-0" />
        <mxCell id="dM_Qt6CL8K8Z289YyEKp-29" style="edgeStyle=orthogonalEdgeStyle;rounded=0;orthogonalLoop=1;jettySize=auto;html=1;exitX=1;exitY=0.5;exitDx=0;exitDy=0;entryX=0;entryY=0.5;entryDx=0;entryDy=0;endArrow=classic;endFill=1;" parent="WIyWlLk6GJQsqaUBKTNV-1" source="dM_Qt6CL8K8Z289YyEKp-0" target="dM_Qt6CL8K8Z289YyEKp-28" edge="1">
          <mxGeometry relative="1" as="geometry" />
        </mxCell>
        <mxCell id="dM_Qt6CL8K8Z289YyEKp-30" value="produces" style="edgeLabel;html=1;align=center;verticalAlign=middle;resizable=0;points=[];" parent="dM_Qt6CL8K8Z289YyEKp-29" vertex="1" connectable="0">
          <mxGeometry x="0.2727" y="-2" relative="1" as="geometry">
            <mxPoint as="offset" />
          </mxGeometry>
        </mxCell>
        <mxCell id="dM_Qt6CL8K8Z289YyEKp-0" value="AI lifecycle phase" style="rounded=1;whiteSpace=wrap;html=1;" parent="WIyWlLk6GJQsqaUBKTNV-1" vertex="1">
          <mxGeometry x="70" y="50" width="120" height="60" as="geometry" />
        </mxCell>
        <mxCell id="dM_Qt6CL8K8Z289YyEKp-11" style="edgeStyle=orthogonalEdgeStyle;rounded=0;orthogonalLoop=1;jettySize=auto;html=1;exitX=0.5;exitY=1;exitDx=0;exitDy=0;entryX=0.5;entryY=0;entryDx=0;entryDy=0;" parent="WIyWlLk6GJQsqaUBKTNV-1" source="dM_Qt6CL8K8Z289YyEKp-1" target="dM_Qt6CL8K8Z289YyEKp-2" edge="1">
          <mxGeometry relative="1" as="geometry" />
        </mxCell>
        <mxCell id="dM_Qt6CL8K8Z289YyEKp-19" style="edgeStyle=orthogonalEdgeStyle;rounded=0;orthogonalLoop=1;jettySize=auto;html=1;exitX=0;exitY=0.5;exitDx=0;exitDy=0;entryX=0.25;entryY=1;entryDx=0;entryDy=0;endArrow=block;endFill=0;" parent="WIyWlLk6GJQsqaUBKTNV-1" source="dM_Qt6CL8K8Z289YyEKp-1" target="dM_Qt6CL8K8Z289YyEKp-0" edge="1">
          <mxGeometry relative="1" as="geometry" />
        </mxCell>
        <mxCell id="Yw4uyzj8dCI01mVFC5TL-0" value="produces" style="edgeStyle=orthogonalEdgeStyle;rounded=0;orthogonalLoop=1;jettySize=auto;html=1;exitX=1;exitY=0.5;exitDx=0;exitDy=0;entryX=0;entryY=0.75;entryDx=0;entryDy=0;" edge="1" parent="WIyWlLk6GJQsqaUBKTNV-1" source="dM_Qt6CL8K8Z289YyEKp-1" target="SN9f8TlN3MCeiG-UvgbM-5">
          <mxGeometry relative="1" as="geometry" />
        </mxCell>
        <mxCell id="dM_Qt6CL8K8Z289YyEKp-1" value="Problem definition" style="rounded=1;whiteSpace=wrap;html=1;" parent="WIyWlLk6GJQsqaUBKTNV-1" vertex="1">
          <mxGeometry x="140" y="140" width="120" height="60" as="geometry" />
        </mxCell>
        <mxCell id="dM_Qt6CL8K8Z289YyEKp-12" style="edgeStyle=orthogonalEdgeStyle;rounded=0;orthogonalLoop=1;jettySize=auto;html=1;exitX=0.5;exitY=1;exitDx=0;exitDy=0;entryX=0.5;entryY=0;entryDx=0;entryDy=0;" parent="WIyWlLk6GJQsqaUBKTNV-1" source="dM_Qt6CL8K8Z289YyEKp-2" target="dM_Qt6CL8K8Z289YyEKp-3" edge="1">
          <mxGeometry relative="1" as="geometry" />
        </mxCell>
        <mxCell id="Yw4uyzj8dCI01mVFC5TL-1" value="produces" style="edgeStyle=orthogonalEdgeStyle;rounded=0;orthogonalLoop=1;jettySize=auto;html=1;exitX=1;exitY=0.75;exitDx=0;exitDy=0;entryX=0;entryY=0.75;entryDx=0;entryDy=0;" edge="1" parent="WIyWlLk6GJQsqaUBKTNV-1" source="dM_Qt6CL8K8Z289YyEKp-2" target="SN9f8TlN3MCeiG-UvgbM-4">
          <mxGeometry relative="1" as="geometry" />
        </mxCell>
        <mxCell id="dM_Qt6CL8K8Z289YyEKp-2" value="Data collection" style="rounded=1;whiteSpace=wrap;html=1;" parent="WIyWlLk6GJQsqaUBKTNV-1" vertex="1">
          <mxGeometry x="140" y="220" width="120" height="60" as="geometry" />
        </mxCell>
        <mxCell id="dM_Qt6CL8K8Z289YyEKp-13" style="edgeStyle=orthogonalEdgeStyle;rounded=0;orthogonalLoop=1;jettySize=auto;html=1;exitX=0.5;exitY=1;exitDx=0;exitDy=0;entryX=0.5;entryY=0;entryDx=0;entryDy=0;" parent="WIyWlLk6GJQsqaUBKTNV-1" source="dM_Qt6CL8K8Z289YyEKp-3" target="dM_Qt6CL8K8Z289YyEKp-4" edge="1">
          <mxGeometry relative="1" as="geometry" />
        </mxCell>
        <mxCell id="Yw4uyzj8dCI01mVFC5TL-2" value="produces" style="edgeStyle=orthogonalEdgeStyle;rounded=0;orthogonalLoop=1;jettySize=auto;html=1;exitX=1;exitY=0.75;exitDx=0;exitDy=0;entryX=0;entryY=0.75;entryDx=0;entryDy=0;" edge="1" parent="WIyWlLk6GJQsqaUBKTNV-1" source="dM_Qt6CL8K8Z289YyEKp-3" target="dM_Qt6CL8K8Z289YyEKp-31">
          <mxGeometry relative="1" as="geometry" />
        </mxCell>
        <mxCell id="dM_Qt6CL8K8Z289YyEKp-3" value="Model development" style="rounded=1;whiteSpace=wrap;html=1;" parent="WIyWlLk6GJQsqaUBKTNV-1" vertex="1">
          <mxGeometry x="140" y="300" width="120" height="60" as="geometry" />
        </mxCell>
        <mxCell id="dM_Qt6CL8K8Z289YyEKp-14" style="edgeStyle=orthogonalEdgeStyle;rounded=0;orthogonalLoop=1;jettySize=auto;html=1;exitX=0.5;exitY=1;exitDx=0;exitDy=0;entryX=0.5;entryY=0;entryDx=0;entryDy=0;" parent="WIyWlLk6GJQsqaUBKTNV-1" source="dM_Qt6CL8K8Z289YyEKp-4" target="dM_Qt6CL8K8Z289YyEKp-5" edge="1">
          <mxGeometry relative="1" as="geometry" />
        </mxCell>
        <mxCell id="dM_Qt6CL8K8Z289YyEKp-4" value="Model testing" style="rounded=1;whiteSpace=wrap;html=1;" parent="WIyWlLk6GJQsqaUBKTNV-1" vertex="1">
          <mxGeometry x="140" y="380" width="120" height="60" as="geometry" />
        </mxCell>
        <mxCell id="dM_Qt6CL8K8Z289YyEKp-15" style="edgeStyle=orthogonalEdgeStyle;rounded=0;orthogonalLoop=1;jettySize=auto;html=1;exitX=0.5;exitY=1;exitDx=0;exitDy=0;entryX=0.5;entryY=0;entryDx=0;entryDy=0;" parent="WIyWlLk6GJQsqaUBKTNV-1" source="dM_Qt6CL8K8Z289YyEKp-5" target="dM_Qt6CL8K8Z289YyEKp-6" edge="1">
          <mxGeometry relative="1" as="geometry" />
        </mxCell>
        <mxCell id="dM_Qt6CL8K8Z289YyEKp-5" value="Product development" style="rounded=1;whiteSpace=wrap;html=1;" parent="WIyWlLk6GJQsqaUBKTNV-1" vertex="1">
          <mxGeometry x="140" y="470" width="120" height="60" as="geometry" />
        </mxCell>
        <mxCell id="dM_Qt6CL8K8Z289YyEKp-16" style="edgeStyle=orthogonalEdgeStyle;rounded=0;orthogonalLoop=1;jettySize=auto;html=1;exitX=0.5;exitY=1;exitDx=0;exitDy=0;entryX=0.5;entryY=0;entryDx=0;entryDy=0;" parent="WIyWlLk6GJQsqaUBKTNV-1" source="dM_Qt6CL8K8Z289YyEKp-6" target="dM_Qt6CL8K8Z289YyEKp-7" edge="1">
          <mxGeometry relative="1" as="geometry" />
        </mxCell>
        <mxCell id="dM_Qt6CL8K8Z289YyEKp-6" value="Product testing" style="rounded=1;whiteSpace=wrap;html=1;" parent="WIyWlLk6GJQsqaUBKTNV-1" vertex="1">
          <mxGeometry x="140" y="555" width="120" height="60" as="geometry" />
        </mxCell>
        <mxCell id="dM_Qt6CL8K8Z289YyEKp-17" style="edgeStyle=orthogonalEdgeStyle;rounded=0;orthogonalLoop=1;jettySize=auto;html=1;exitX=0.5;exitY=1;exitDx=0;exitDy=0;entryX=0.5;entryY=0;entryDx=0;entryDy=0;" parent="WIyWlLk6GJQsqaUBKTNV-1" source="dM_Qt6CL8K8Z289YyEKp-7" target="dM_Qt6CL8K8Z289YyEKp-8" edge="1">
          <mxGeometry relative="1" as="geometry" />
        </mxCell>
        <mxCell id="dM_Qt6CL8K8Z289YyEKp-7" value="Product implementation" style="rounded=1;whiteSpace=wrap;html=1;" parent="WIyWlLk6GJQsqaUBKTNV-1" vertex="1">
          <mxGeometry x="140" y="640" width="120" height="60" as="geometry" />
        </mxCell>
        <mxCell id="dM_Qt6CL8K8Z289YyEKp-18" style="edgeStyle=orthogonalEdgeStyle;rounded=0;orthogonalLoop=1;jettySize=auto;html=1;exitX=0.5;exitY=1;exitDx=0;exitDy=0;entryX=0.5;entryY=0;entryDx=0;entryDy=0;" parent="WIyWlLk6GJQsqaUBKTNV-1" source="dM_Qt6CL8K8Z289YyEKp-8" target="dM_Qt6CL8K8Z289YyEKp-9" edge="1">
          <mxGeometry relative="1" as="geometry" />
        </mxCell>
        <mxCell id="dM_Qt6CL8K8Z289YyEKp-8" value="Product monitoring" style="rounded=1;whiteSpace=wrap;html=1;" parent="WIyWlLk6GJQsqaUBKTNV-1" vertex="1">
          <mxGeometry x="140" y="720" width="120" height="60" as="geometry" />
        </mxCell>
        <mxCell id="dM_Qt6CL8K8Z289YyEKp-9" value="Product deprecation" style="rounded=1;whiteSpace=wrap;html=1;" parent="WIyWlLk6GJQsqaUBKTNV-1" vertex="1">
          <mxGeometry x="140" y="810" width="120" height="60" as="geometry" />
        </mxCell>
        <mxCell id="dM_Qt6CL8K8Z289YyEKp-20" style="edgeStyle=orthogonalEdgeStyle;rounded=0;orthogonalLoop=1;jettySize=auto;html=1;exitX=0;exitY=0.5;exitDx=0;exitDy=0;entryX=0.25;entryY=1;entryDx=0;entryDy=0;endArrow=block;endFill=0;" parent="WIyWlLk6GJQsqaUBKTNV-1" source="dM_Qt6CL8K8Z289YyEKp-2" target="dM_Qt6CL8K8Z289YyEKp-0" edge="1">
          <mxGeometry relative="1" as="geometry">
            <mxPoint x="150" y="180" as="sourcePoint" />
            <mxPoint x="110" y="120" as="targetPoint" />
          </mxGeometry>
        </mxCell>
        <mxCell id="dM_Qt6CL8K8Z289YyEKp-21" style="edgeStyle=orthogonalEdgeStyle;rounded=0;orthogonalLoop=1;jettySize=auto;html=1;exitX=0;exitY=0.5;exitDx=0;exitDy=0;entryX=0.25;entryY=1;entryDx=0;entryDy=0;endArrow=block;endFill=0;" parent="WIyWlLk6GJQsqaUBKTNV-1" source="dM_Qt6CL8K8Z289YyEKp-3" target="dM_Qt6CL8K8Z289YyEKp-0" edge="1">
          <mxGeometry relative="1" as="geometry">
            <mxPoint x="150" y="260" as="sourcePoint" />
            <mxPoint x="110" y="120" as="targetPoint" />
          </mxGeometry>
        </mxCell>
        <mxCell id="dM_Qt6CL8K8Z289YyEKp-22" style="edgeStyle=orthogonalEdgeStyle;rounded=0;orthogonalLoop=1;jettySize=auto;html=1;exitX=0;exitY=0.5;exitDx=0;exitDy=0;endArrow=block;endFill=0;" parent="WIyWlLk6GJQsqaUBKTNV-1" source="dM_Qt6CL8K8Z289YyEKp-4" edge="1">
          <mxGeometry relative="1" as="geometry">
            <mxPoint x="160" y="270" as="sourcePoint" />
            <mxPoint x="100" y="110" as="targetPoint" />
          </mxGeometry>
        </mxCell>
        <mxCell id="dM_Qt6CL8K8Z289YyEKp-23" style="edgeStyle=orthogonalEdgeStyle;rounded=0;orthogonalLoop=1;jettySize=auto;html=1;exitX=0;exitY=0.5;exitDx=0;exitDy=0;entryX=0.25;entryY=1;entryDx=0;entryDy=0;endArrow=block;endFill=0;" parent="WIyWlLk6GJQsqaUBKTNV-1" source="dM_Qt6CL8K8Z289YyEKp-5" target="dM_Qt6CL8K8Z289YyEKp-0" edge="1">
          <mxGeometry relative="1" as="geometry">
            <mxPoint x="170" y="280" as="sourcePoint" />
            <mxPoint x="130" y="140" as="targetPoint" />
          </mxGeometry>
        </mxCell>
        <mxCell id="dM_Qt6CL8K8Z289YyEKp-24" style="edgeStyle=orthogonalEdgeStyle;rounded=0;orthogonalLoop=1;jettySize=auto;html=1;exitX=0;exitY=0.5;exitDx=0;exitDy=0;entryX=0.25;entryY=1;entryDx=0;entryDy=0;endArrow=block;endFill=0;" parent="WIyWlLk6GJQsqaUBKTNV-1" source="dM_Qt6CL8K8Z289YyEKp-6" target="dM_Qt6CL8K8Z289YyEKp-0" edge="1">
          <mxGeometry relative="1" as="geometry">
            <mxPoint x="180" y="290" as="sourcePoint" />
            <mxPoint x="140" y="150" as="targetPoint" />
          </mxGeometry>
        </mxCell>
        <mxCell id="dM_Qt6CL8K8Z289YyEKp-25" style="edgeStyle=orthogonalEdgeStyle;rounded=0;orthogonalLoop=1;jettySize=auto;html=1;exitX=0;exitY=0.5;exitDx=0;exitDy=0;endArrow=block;endFill=0;entryX=0.25;entryY=1;entryDx=0;entryDy=0;" parent="WIyWlLk6GJQsqaUBKTNV-1" source="dM_Qt6CL8K8Z289YyEKp-7" target="dM_Qt6CL8K8Z289YyEKp-0" edge="1">
          <mxGeometry relative="1" as="geometry">
            <mxPoint x="190" y="300" as="sourcePoint" />
            <mxPoint x="80" y="150" as="targetPoint" />
          </mxGeometry>
        </mxCell>
        <mxCell id="dM_Qt6CL8K8Z289YyEKp-26" style="edgeStyle=orthogonalEdgeStyle;rounded=0;orthogonalLoop=1;jettySize=auto;html=1;exitX=0;exitY=0.5;exitDx=0;exitDy=0;endArrow=block;endFill=0;" parent="WIyWlLk6GJQsqaUBKTNV-1" source="dM_Qt6CL8K8Z289YyEKp-8" edge="1">
          <mxGeometry relative="1" as="geometry">
            <mxPoint x="70" y="350" as="sourcePoint" />
            <mxPoint x="100" y="110" as="targetPoint" />
          </mxGeometry>
        </mxCell>
        <mxCell id="dM_Qt6CL8K8Z289YyEKp-27" style="edgeStyle=orthogonalEdgeStyle;rounded=0;orthogonalLoop=1;jettySize=auto;html=1;exitX=0;exitY=0.5;exitDx=0;exitDy=0;endArrow=block;endFill=0;entryX=0.25;entryY=1;entryDx=0;entryDy=0;" parent="WIyWlLk6GJQsqaUBKTNV-1" source="dM_Qt6CL8K8Z289YyEKp-9" target="dM_Qt6CL8K8Z289YyEKp-0" edge="1">
          <mxGeometry relative="1" as="geometry">
            <mxPoint x="150" y="760" as="sourcePoint" />
            <mxPoint x="110" y="120" as="targetPoint" />
          </mxGeometry>
        </mxCell>
        <mxCell id="dM_Qt6CL8K8Z289YyEKp-28" value="Product" style="rounded=1;whiteSpace=wrap;html=1;" parent="WIyWlLk6GJQsqaUBKTNV-1" vertex="1">
          <mxGeometry x="410" y="50" width="120" height="60" as="geometry" />
        </mxCell>
        <mxCell id="dM_Qt6CL8K8Z289YyEKp-33" style="edgeStyle=orthogonalEdgeStyle;rounded=0;orthogonalLoop=1;jettySize=auto;html=1;exitX=0;exitY=0.25;exitDx=0;exitDy=0;entryX=0.5;entryY=1;entryDx=0;entryDy=0;endArrow=block;endFill=0;" parent="WIyWlLk6GJQsqaUBKTNV-1" source="dM_Qt6CL8K8Z289YyEKp-31" target="dM_Qt6CL8K8Z289YyEKp-28" edge="1">
          <mxGeometry relative="1" as="geometry" />
        </mxCell>
        <mxCell id="dM_Qt6CL8K8Z289YyEKp-35" value="has_part" style="edgeStyle=orthogonalEdgeStyle;rounded=0;orthogonalLoop=1;jettySize=auto;html=1;exitX=1;exitY=0.5;exitDx=0;exitDy=0;entryX=0;entryY=0.5;entryDx=0;entryDy=0;endArrow=classic;endFill=1;" parent="WIyWlLk6GJQsqaUBKTNV-1" source="dM_Qt6CL8K8Z289YyEKp-31" target="dM_Qt6CL8K8Z289YyEKp-34" edge="1">
          <mxGeometry relative="1" as="geometry" />
        </mxCell>
        <mxCell id="bSSH-97sY-6J7uN4rARN-9" value="contributes_to" style="edgeStyle=orthogonalEdgeStyle;rounded=0;orthogonalLoop=1;jettySize=auto;html=1;exitX=0.5;exitY=1;exitDx=0;exitDy=0;entryX=0.5;entryY=0;entryDx=0;entryDy=0;" edge="1" parent="WIyWlLk6GJQsqaUBKTNV-1" source="dM_Qt6CL8K8Z289YyEKp-31" target="bSSH-97sY-6J7uN4rARN-8">
          <mxGeometry relative="1" as="geometry" />
        </mxCell>
        <mxCell id="dM_Qt6CL8K8Z289YyEKp-31" value="AI model" style="rounded=1;whiteSpace=wrap;html=1;fillColor=#f8cecc;strokeColor=#b85450;" parent="WIyWlLk6GJQsqaUBKTNV-1" vertex="1">
          <mxGeometry x="810" y="300" width="120" height="60" as="geometry" />
        </mxCell>
        <mxCell id="dM_Qt6CL8K8Z289YyEKp-38" value="contains" style="edgeStyle=orthogonalEdgeStyle;rounded=0;orthogonalLoop=1;jettySize=auto;html=1;exitX=1;exitY=0.5;exitDx=0;exitDy=0;entryX=0;entryY=0.5;entryDx=0;entryDy=0;endArrow=classic;endFill=1;" parent="WIyWlLk6GJQsqaUBKTNV-1" source="dM_Qt6CL8K8Z289YyEKp-34" target="dM_Qt6CL8K8Z289YyEKp-36" edge="1">
          <mxGeometry relative="1" as="geometry" />
        </mxCell>
        <mxCell id="dM_Qt6CL8K8Z289YyEKp-39" value="contains" style="edgeStyle=orthogonalEdgeStyle;rounded=0;orthogonalLoop=1;jettySize=auto;html=1;exitX=1;exitY=0.5;exitDx=0;exitDy=0;entryX=0;entryY=0.5;entryDx=0;entryDy=0;endArrow=classic;endFill=1;" parent="WIyWlLk6GJQsqaUBKTNV-1" source="dM_Qt6CL8K8Z289YyEKp-34" target="dM_Qt6CL8K8Z289YyEKp-37" edge="1">
          <mxGeometry relative="1" as="geometry" />
        </mxCell>
        <mxCell id="dM_Qt6CL8K8Z289YyEKp-34" value="artificial intelligence" style="rounded=1;whiteSpace=wrap;html=1;fillColor=#f8cecc;strokeColor=#b85450;" parent="WIyWlLk6GJQsqaUBKTNV-1" vertex="1">
          <mxGeometry x="1270" y="300" width="120" height="60" as="geometry" />
        </mxCell>
        <mxCell id="dM_Qt6CL8K8Z289YyEKp-41" value="based_on" style="edgeStyle=orthogonalEdgeStyle;rounded=0;orthogonalLoop=1;jettySize=auto;html=1;exitX=1;exitY=0.75;exitDx=0;exitDy=0;entryX=0;entryY=0.5;entryDx=0;entryDy=0;endArrow=classic;endFill=1;" parent="WIyWlLk6GJQsqaUBKTNV-1" source="dM_Qt6CL8K8Z289YyEKp-36" target="dM_Qt6CL8K8Z289YyEKp-40" edge="1">
          <mxGeometry relative="1" as="geometry" />
        </mxCell>
        <mxCell id="dM_Qt6CL8K8Z289YyEKp-45" value="is_variable_type" style="edgeStyle=orthogonalEdgeStyle;rounded=0;orthogonalLoop=1;jettySize=auto;html=1;exitX=1;exitY=0.5;exitDx=0;exitDy=0;entryX=0;entryY=0.5;entryDx=0;entryDy=0;endArrow=classic;endFill=1;" parent="WIyWlLk6GJQsqaUBKTNV-1" source="dM_Qt6CL8K8Z289YyEKp-36" target="dM_Qt6CL8K8Z289YyEKp-44" edge="1">
          <mxGeometry relative="1" as="geometry" />
        </mxCell>
        <mxCell id="dM_Qt6CL8K8Z289YyEKp-49" value="parameter_name" style="edgeStyle=orthogonalEdgeStyle;rounded=0;orthogonalLoop=1;jettySize=auto;html=1;exitX=1;exitY=0.25;exitDx=0;exitDy=0;entryX=0;entryY=0.5;entryDx=0;entryDy=0;endArrow=classic;endFill=1;" parent="WIyWlLk6GJQsqaUBKTNV-1" source="dM_Qt6CL8K8Z289YyEKp-36" target="dM_Qt6CL8K8Z289YyEKp-48" edge="1">
          <mxGeometry relative="1" as="geometry" />
        </mxCell>
        <mxCell id="dM_Qt6CL8K8Z289YyEKp-56" value="has_translation" style="edgeStyle=orthogonalEdgeStyle;rounded=0;orthogonalLoop=1;jettySize=auto;html=1;exitX=1;exitY=0.5;exitDx=0;exitDy=0;entryX=0;entryY=0.5;entryDx=0;entryDy=0;endArrow=classic;endFill=1;" parent="WIyWlLk6GJQsqaUBKTNV-1" source="dM_Qt6CL8K8Z289YyEKp-36" target="dM_Qt6CL8K8Z289YyEKp-50" edge="1">
          <mxGeometry relative="1" as="geometry" />
        </mxCell>
        <mxCell id="dM_Qt6CL8K8Z289YyEKp-36" value="Algorithm Input Feature" style="rounded=1;whiteSpace=wrap;html=1;fillColor=#f8cecc;strokeColor=#b85450;" parent="WIyWlLk6GJQsqaUBKTNV-1" vertex="1">
          <mxGeometry x="1560" y="230" width="120" height="60" as="geometry" />
        </mxCell>
        <mxCell id="dM_Qt6CL8K8Z289YyEKp-58" value="rdfs:label" style="edgeStyle=orthogonalEdgeStyle;rounded=0;orthogonalLoop=1;jettySize=auto;html=1;exitX=1;exitY=0.25;exitDx=0;exitDy=0;entryX=0;entryY=0.5;entryDx=0;entryDy=0;endArrow=classic;endFill=1;" parent="WIyWlLk6GJQsqaUBKTNV-1" source="dM_Qt6CL8K8Z289YyEKp-37" target="dM_Qt6CL8K8Z289YyEKp-57" edge="1">
          <mxGeometry relative="1" as="geometry" />
        </mxCell>
        <mxCell id="dM_Qt6CL8K8Z289YyEKp-60" value="parameter_name" style="edgeStyle=orthogonalEdgeStyle;rounded=0;orthogonalLoop=1;jettySize=auto;html=1;exitX=1;exitY=0.5;exitDx=0;exitDy=0;entryX=0;entryY=0.5;entryDx=0;entryDy=0;endArrow=classic;endFill=1;" parent="WIyWlLk6GJQsqaUBKTNV-1" source="dM_Qt6CL8K8Z289YyEKp-37" target="dM_Qt6CL8K8Z289YyEKp-59" edge="1">
          <mxGeometry relative="1" as="geometry" />
        </mxCell>
        <mxCell id="dM_Qt6CL8K8Z289YyEKp-37" value="Algorithm Output Feature" style="rounded=1;whiteSpace=wrap;html=1;fillColor=#f8cecc;strokeColor=#b85450;" parent="WIyWlLk6GJQsqaUBKTNV-1" vertex="1">
          <mxGeometry x="1560" y="530" width="120" height="60" as="geometry" />
        </mxCell>
        <mxCell id="SN9f8TlN3MCeiG-UvgbM-1" value="rdf:type" style="edgeStyle=orthogonalEdgeStyle;rounded=0;orthogonalLoop=1;jettySize=auto;html=1;exitX=0.75;exitY=1;exitDx=0;exitDy=0;entryX=0;entryY=0.5;entryDx=0;entryDy=0;" edge="1" parent="WIyWlLk6GJQsqaUBKTNV-1" source="dM_Qt6CL8K8Z289YyEKp-40" target="SN9f8TlN3MCeiG-UvgbM-2">
          <mxGeometry relative="1" as="geometry">
            <mxPoint x="1930" y="460" as="targetPoint" />
          </mxGeometry>
        </mxCell>
        <mxCell id="dM_Qt6CL8K8Z289YyEKp-40" value="Information Element" style="rounded=0;whiteSpace=wrap;html=1;fillColor=#dae8fc;strokeColor=#6c8ebf;" parent="WIyWlLk6GJQsqaUBKTNV-1" vertex="1">
          <mxGeometry x="1720" y="360" width="140" height="60" as="geometry" />
        </mxCell>
        <mxCell id="dM_Qt6CL8K8Z289YyEKp-44" value="[anonymous individual]&lt;br&gt;Variable type&lt;br&gt;(numerical/categorical)" style="rounded=0;whiteSpace=wrap;html=1;fillColor=#dae8fc;strokeColor=#6c8ebf;" parent="WIyWlLk6GJQsqaUBKTNV-1" vertex="1">
          <mxGeometry x="1890" y="280" width="140" height="60" as="geometry" />
        </mxCell>
        <mxCell id="dM_Qt6CL8K8Z289YyEKp-48" value="xsd:string" style="rounded=0;whiteSpace=wrap;html=1;fillColor=#f5f5f5;fontColor=#333333;strokeColor=#666666;" parent="WIyWlLk6GJQsqaUBKTNV-1" vertex="1">
          <mxGeometry x="1770" y="40" width="140" height="60" as="geometry" />
        </mxCell>
        <mxCell id="dM_Qt6CL8K8Z289YyEKp-52" value="generic_term" style="edgeStyle=orthogonalEdgeStyle;rounded=0;orthogonalLoop=1;jettySize=auto;html=1;endArrow=classic;endFill=1;exitX=1;exitY=0.25;exitDx=0;exitDy=0;" parent="WIyWlLk6GJQsqaUBKTNV-1" source="dM_Qt6CL8K8Z289YyEKp-50" target="dM_Qt6CL8K8Z289YyEKp-51" edge="1">
          <mxGeometry relative="1" as="geometry" />
        </mxCell>
        <mxCell id="dM_Qt6CL8K8Z289YyEKp-55" value="value" style="edgeStyle=orthogonalEdgeStyle;rounded=0;orthogonalLoop=1;jettySize=auto;html=1;exitX=1;exitY=0.75;exitDx=0;exitDy=0;entryX=0;entryY=0.5;entryDx=0;entryDy=0;endArrow=classic;endFill=1;" parent="WIyWlLk6GJQsqaUBKTNV-1" source="dM_Qt6CL8K8Z289YyEKp-50" target="dM_Qt6CL8K8Z289YyEKp-54" edge="1">
          <mxGeometry relative="1" as="geometry" />
        </mxCell>
        <mxCell id="dM_Qt6CL8K8Z289YyEKp-50" value="[anonymous individual]&lt;br&gt;Value Translation" style="rounded=0;whiteSpace=wrap;html=1;fillColor=#dae8fc;strokeColor=#6c8ebf;" parent="WIyWlLk6GJQsqaUBKTNV-1" vertex="1">
          <mxGeometry x="1890" y="160" width="140" height="60" as="geometry" />
        </mxCell>
        <mxCell id="dM_Qt6CL8K8Z289YyEKp-51" value="[anonymous individual]&lt;br&gt;external ontology class" style="whiteSpace=wrap;html=1;rounded=0;fillColor=#fff2cc;strokeColor=#d6b656;" parent="WIyWlLk6GJQsqaUBKTNV-1" vertex="1">
          <mxGeometry x="2120" y="100" width="140" height="60" as="geometry" />
        </mxCell>
        <mxCell id="dM_Qt6CL8K8Z289YyEKp-54" value="xsd:string" style="rounded=0;whiteSpace=wrap;html=1;fillColor=#f5f5f5;fontColor=#333333;strokeColor=#666666;" parent="WIyWlLk6GJQsqaUBKTNV-1" vertex="1">
          <mxGeometry x="2120" y="220" width="140" height="60" as="geometry" />
        </mxCell>
        <mxCell id="dM_Qt6CL8K8Z289YyEKp-57" value="xsd:string" style="rounded=0;whiteSpace=wrap;html=1;fillColor=#f5f5f5;fontColor=#333333;strokeColor=#666666;" parent="WIyWlLk6GJQsqaUBKTNV-1" vertex="1">
          <mxGeometry x="1810" y="500" width="140" height="60" as="geometry" />
        </mxCell>
        <mxCell id="dM_Qt6CL8K8Z289YyEKp-59" value="xsd:string" style="rounded=0;whiteSpace=wrap;html=1;fillColor=#f5f5f5;fontColor=#333333;strokeColor=#666666;" parent="WIyWlLk6GJQsqaUBKTNV-1" vertex="1">
          <mxGeometry x="1810" y="590" width="140" height="60" as="geometry" />
        </mxCell>
        <mxCell id="dM_Qt6CL8K8Z289YyEKp-64" style="edgeStyle=orthogonalEdgeStyle;rounded=0;orthogonalLoop=1;jettySize=auto;html=1;exitX=0.5;exitY=1;exitDx=0;exitDy=0;entryX=0.5;entryY=0;entryDx=0;entryDy=0;endArrow=block;endFill=0;" parent="WIyWlLk6GJQsqaUBKTNV-1" source="dM_Qt6CL8K8Z289YyEKp-63" target="dM_Qt6CL8K8Z289YyEKp-37" edge="1">
          <mxGeometry relative="1" as="geometry" />
        </mxCell>
        <mxCell id="hWLEaWJ-5blyYh4Wp0G3-11" value="estimates" style="edgeStyle=orthogonalEdgeStyle;rounded=0;orthogonalLoop=1;jettySize=auto;html=1;exitX=1;exitY=0.5;exitDx=0;exitDy=0;entryX=0.5;entryY=1;entryDx=0;entryDy=0;" parent="WIyWlLk6GJQsqaUBKTNV-1" source="dM_Qt6CL8K8Z289YyEKp-63" target="dM_Qt6CL8K8Z289YyEKp-40" edge="1">
          <mxGeometry relative="1" as="geometry">
            <mxPoint x="1850" y="480" as="targetPoint" />
          </mxGeometry>
        </mxCell>
        <mxCell id="dM_Qt6CL8K8Z289YyEKp-63" value="Probability" style="rounded=1;whiteSpace=wrap;html=1;fillColor=#f8cecc;strokeColor=#b85450;" parent="WIyWlLk6GJQsqaUBKTNV-1" vertex="1">
          <mxGeometry x="1560" y="420" width="120" height="60" as="geometry" />
        </mxCell>
        <mxCell id="hWLEaWJ-5blyYh4Wp0G3-1" style="edgeStyle=orthogonalEdgeStyle;rounded=0;orthogonalLoop=1;jettySize=auto;html=1;exitX=0.5;exitY=0;exitDx=0;exitDy=0;entryX=0.5;entryY=1;entryDx=0;entryDy=0;endArrow=block;endFill=0;" parent="WIyWlLk6GJQsqaUBKTNV-1" source="hWLEaWJ-5blyYh4Wp0G3-0" target="dM_Qt6CL8K8Z289YyEKp-34" edge="1">
          <mxGeometry relative="1" as="geometry" />
        </mxCell>
        <mxCell id="hWLEaWJ-5blyYh4Wp0G3-0" value="machine learning" style="rounded=1;whiteSpace=wrap;html=1;" parent="WIyWlLk6GJQsqaUBKTNV-1" vertex="1">
          <mxGeometry x="1270" y="410" width="120" height="60" as="geometry" />
        </mxCell>
        <mxCell id="hWLEaWJ-5blyYh4Wp0G3-3" style="edgeStyle=orthogonalEdgeStyle;rounded=0;orthogonalLoop=1;jettySize=auto;html=1;exitX=0.5;exitY=0;exitDx=0;exitDy=0;entryX=0.5;entryY=1;entryDx=0;entryDy=0;endArrow=block;endFill=0;" parent="WIyWlLk6GJQsqaUBKTNV-1" source="hWLEaWJ-5blyYh4Wp0G3-2" target="hWLEaWJ-5blyYh4Wp0G3-0" edge="1">
          <mxGeometry relative="1" as="geometry" />
        </mxCell>
        <mxCell id="hWLEaWJ-5blyYh4Wp0G3-2" value="supervised" style="rounded=1;whiteSpace=wrap;html=1;" parent="WIyWlLk6GJQsqaUBKTNV-1" vertex="1">
          <mxGeometry x="1347" y="510" width="120" height="60" as="geometry" />
        </mxCell>
        <mxCell id="hWLEaWJ-5blyYh4Wp0G3-7" style="edgeStyle=orthogonalEdgeStyle;rounded=0;orthogonalLoop=1;jettySize=auto;html=1;exitX=0.5;exitY=0;exitDx=0;exitDy=0;entryX=0.5;entryY=1;entryDx=0;entryDy=0;endArrow=block;endFill=0;" parent="WIyWlLk6GJQsqaUBKTNV-1" source="hWLEaWJ-5blyYh4Wp0G3-4" target="hWLEaWJ-5blyYh4Wp0G3-0" edge="1">
          <mxGeometry relative="1" as="geometry" />
        </mxCell>
        <mxCell id="hWLEaWJ-5blyYh4Wp0G3-4" value="unsupervised" style="rounded=1;whiteSpace=wrap;html=1;" parent="WIyWlLk6GJQsqaUBKTNV-1" vertex="1">
          <mxGeometry x="1200" y="510" width="120" height="60" as="geometry" />
        </mxCell>
        <mxCell id="hWLEaWJ-5blyYh4Wp0G3-9" style="edgeStyle=orthogonalEdgeStyle;rounded=0;orthogonalLoop=1;jettySize=auto;html=1;exitX=0.5;exitY=0;exitDx=0;exitDy=0;entryX=0.5;entryY=1;entryDx=0;entryDy=0;endArrow=block;endFill=0;" parent="WIyWlLk6GJQsqaUBKTNV-1" source="hWLEaWJ-5blyYh4Wp0G3-8" target="hWLEaWJ-5blyYh4Wp0G3-2" edge="1">
          <mxGeometry relative="1" as="geometry" />
        </mxCell>
        <mxCell id="hWLEaWJ-5blyYh4Wp0G3-8" value="logistic regression" style="rounded=1;whiteSpace=wrap;html=1;" parent="WIyWlLk6GJQsqaUBKTNV-1" vertex="1">
          <mxGeometry x="1347" y="630" width="120" height="60" as="geometry" />
        </mxCell>
        <mxCell id="SN9f8TlN3MCeiG-UvgbM-0" value="is_variable_type" style="edgeStyle=orthogonalEdgeStyle;rounded=0;orthogonalLoop=1;jettySize=auto;html=1;exitX=1;exitY=0.5;exitDx=0;exitDy=0;entryX=0.5;entryY=1;entryDx=0;entryDy=0;endArrow=classic;endFill=1;" edge="1" parent="WIyWlLk6GJQsqaUBKTNV-1" source="dM_Qt6CL8K8Z289YyEKp-40" target="dM_Qt6CL8K8Z289YyEKp-44">
          <mxGeometry relative="1" as="geometry">
            <mxPoint x="1690" y="270" as="sourcePoint" />
            <mxPoint x="1900" y="320" as="targetPoint" />
          </mxGeometry>
        </mxCell>
        <mxCell id="SN9f8TlN3MCeiG-UvgbM-2" value="external ontology class" style="rounded=0;whiteSpace=wrap;html=1;fillColor=#fff2cc;strokeColor=#d6b656;" vertex="1" parent="WIyWlLk6GJQsqaUBKTNV-1">
          <mxGeometry x="1960" y="420" width="140" height="60" as="geometry" />
        </mxCell>
        <mxCell id="SN9f8TlN3MCeiG-UvgbM-14" style="edgeStyle=orthogonalEdgeStyle;rounded=0;orthogonalLoop=1;jettySize=auto;html=1;exitX=0;exitY=0.25;exitDx=0;exitDy=0;endArrow=block;endFill=0;" edge="1" parent="WIyWlLk6GJQsqaUBKTNV-1" source="SN9f8TlN3MCeiG-UvgbM-4">
          <mxGeometry relative="1" as="geometry">
            <mxPoint x="470" y="110" as="targetPoint" />
          </mxGeometry>
        </mxCell>
        <mxCell id="SN9f8TlN3MCeiG-UvgbM-17" value="contributes_to" style="edgeStyle=orthogonalEdgeStyle;rounded=0;orthogonalLoop=1;jettySize=auto;html=1;exitX=1;exitY=0.5;exitDx=0;exitDy=0;entryX=0.25;entryY=0;entryDx=0;entryDy=0;" edge="1" parent="WIyWlLk6GJQsqaUBKTNV-1" source="SN9f8TlN3MCeiG-UvgbM-4" target="dM_Qt6CL8K8Z289YyEKp-31">
          <mxGeometry relative="1" as="geometry" />
        </mxCell>
        <mxCell id="SN9f8TlN3MCeiG-UvgbM-4" value="DataSheet" style="rounded=1;whiteSpace=wrap;html=1;fillColor=#d5e8d4;strokeColor=#82b366;" vertex="1" parent="WIyWlLk6GJQsqaUBKTNV-1">
          <mxGeometry x="630" y="230" width="120" height="60" as="geometry" />
        </mxCell>
        <mxCell id="SN9f8TlN3MCeiG-UvgbM-10" value="contributes_to" style="edgeStyle=orthogonalEdgeStyle;rounded=0;orthogonalLoop=1;jettySize=auto;html=1;exitX=1;exitY=0.75;exitDx=0;exitDy=0;entryX=0.75;entryY=0;entryDx=0;entryDy=0;" edge="1" parent="WIyWlLk6GJQsqaUBKTNV-1" source="SN9f8TlN3MCeiG-UvgbM-5" target="SN9f8TlN3MCeiG-UvgbM-4">
          <mxGeometry relative="1" as="geometry" />
        </mxCell>
        <mxCell id="SN9f8TlN3MCeiG-UvgbM-15" style="edgeStyle=orthogonalEdgeStyle;rounded=0;orthogonalLoop=1;jettySize=auto;html=1;exitX=0;exitY=0.5;exitDx=0;exitDy=0;entryX=0.5;entryY=1;entryDx=0;entryDy=0;endArrow=block;endFill=0;" edge="1" parent="WIyWlLk6GJQsqaUBKTNV-1" source="SN9f8TlN3MCeiG-UvgbM-5" target="dM_Qt6CL8K8Z289YyEKp-28">
          <mxGeometry relative="1" as="geometry" />
        </mxCell>
        <mxCell id="SN9f8TlN3MCeiG-UvgbM-16" value="contributes_to" style="edgeStyle=orthogonalEdgeStyle;rounded=0;orthogonalLoop=1;jettySize=auto;html=1;exitX=1;exitY=0.5;exitDx=0;exitDy=0;entryX=0.75;entryY=0;entryDx=0;entryDy=0;" edge="1" parent="WIyWlLk6GJQsqaUBKTNV-1" source="SN9f8TlN3MCeiG-UvgbM-5" target="dM_Qt6CL8K8Z289YyEKp-31">
          <mxGeometry relative="1" as="geometry" />
        </mxCell>
        <mxCell id="bSSH-97sY-6J7uN4rARN-1" value="has_part" style="edgeStyle=orthogonalEdgeStyle;rounded=0;orthogonalLoop=1;jettySize=auto;html=1;exitX=0.75;exitY=0;exitDx=0;exitDy=0;entryX=0;entryY=0.75;entryDx=0;entryDy=0;" edge="1" parent="WIyWlLk6GJQsqaUBKTNV-1" source="SN9f8TlN3MCeiG-UvgbM-5" target="bSSH-97sY-6J7uN4rARN-0">
          <mxGeometry relative="1" as="geometry" />
        </mxCell>
        <mxCell id="SN9f8TlN3MCeiG-UvgbM-5" value="Questionnaire Response" style="rounded=1;whiteSpace=wrap;html=1;fillColor=#e1d5e7;strokeColor=#9673a6;" vertex="1" parent="WIyWlLk6GJQsqaUBKTNV-1">
          <mxGeometry x="490" y="130" width="120" height="60" as="geometry" />
        </mxCell>
        <mxCell id="bSSH-97sY-6J7uN4rARN-2" value="based_on" style="edgeStyle=orthogonalEdgeStyle;rounded=0;orthogonalLoop=1;jettySize=auto;html=1;entryX=0;entryY=0.5;entryDx=0;entryDy=0;" edge="1" parent="WIyWlLk6GJQsqaUBKTNV-1" source="bSSH-97sY-6J7uN4rARN-0" target="bSSH-97sY-6J7uN4rARN-3">
          <mxGeometry relative="1" as="geometry">
            <mxPoint x="890" y="40.000000000000114" as="targetPoint" />
          </mxGeometry>
        </mxCell>
        <mxCell id="bSSH-97sY-6J7uN4rARN-0" value="[anonymous individual]&lt;br&gt;CEDAR metadata URI" style="rounded=0;whiteSpace=wrap;html=1;fillColor=#dae8fc;strokeColor=#6c8ebf;" vertex="1" parent="WIyWlLk6GJQsqaUBKTNV-1">
          <mxGeometry x="670" y="10" width="140" height="60" as="geometry" />
        </mxCell>
        <mxCell id="bSSH-97sY-6J7uN4rARN-3" value="[anonymous individual]&lt;br&gt;CEDAR template URI" style="rounded=0;whiteSpace=wrap;html=1;fillColor=#dae8fc;strokeColor=#6c8ebf;" vertex="1" parent="WIyWlLk6GJQsqaUBKTNV-1">
          <mxGeometry x="890" y="10" width="140" height="60" as="geometry" />
        </mxCell>
        <mxCell id="bSSH-97sY-6J7uN4rARN-4" value="based_on" style="edgeStyle=orthogonalEdgeStyle;rounded=0;orthogonalLoop=1;jettySize=auto;html=1;entryX=0;entryY=0.5;entryDx=0;entryDy=0;" edge="1" parent="WIyWlLk6GJQsqaUBKTNV-1" source="bSSH-97sY-6J7uN4rARN-5" target="bSSH-97sY-6J7uN4rARN-6">
          <mxGeometry relative="1" as="geometry">
            <mxPoint x="970" y="110.00000000000011" as="targetPoint" />
          </mxGeometry>
        </mxCell>
        <mxCell id="bSSH-97sY-6J7uN4rARN-5" value="[anonymous individual]&lt;br&gt;CEDAR metadata URI" style="rounded=0;whiteSpace=wrap;html=1;fillColor=#dae8fc;strokeColor=#6c8ebf;" vertex="1" parent="WIyWlLk6GJQsqaUBKTNV-1">
          <mxGeometry x="750" y="80" width="140" height="60" as="geometry" />
        </mxCell>
        <mxCell id="bSSH-97sY-6J7uN4rARN-6" value="[anonymous individual]&lt;br&gt;CEDAR template URI" style="rounded=0;whiteSpace=wrap;html=1;fillColor=#dae8fc;strokeColor=#6c8ebf;" vertex="1" parent="WIyWlLk6GJQsqaUBKTNV-1">
          <mxGeometry x="970" y="80" width="140" height="60" as="geometry" />
        </mxCell>
        <mxCell id="bSSH-97sY-6J7uN4rARN-7" value="has_part" style="edgeStyle=orthogonalEdgeStyle;rounded=0;orthogonalLoop=1;jettySize=auto;html=1;exitX=0.5;exitY=0;exitDx=0;exitDy=0;entryX=0;entryY=0.5;entryDx=0;entryDy=0;" edge="1" parent="WIyWlLk6GJQsqaUBKTNV-1" source="SN9f8TlN3MCeiG-UvgbM-4" target="bSSH-97sY-6J7uN4rARN-5">
          <mxGeometry relative="1" as="geometry">
            <mxPoint x="590" y="140" as="sourcePoint" />
            <mxPoint x="680" y="65" as="targetPoint" />
          </mxGeometry>
        </mxCell>
        <mxCell id="bSSH-97sY-6J7uN4rARN-10" value="contribution_from" style="edgeStyle=orthogonalEdgeStyle;rounded=0;orthogonalLoop=1;jettySize=auto;html=1;exitX=0;exitY=0.25;exitDx=0;exitDy=0;entryX=0.75;entryY=1;entryDx=0;entryDy=0;" edge="1" parent="WIyWlLk6GJQsqaUBKTNV-1" source="bSSH-97sY-6J7uN4rARN-8" target="SN9f8TlN3MCeiG-UvgbM-4">
          <mxGeometry relative="1" as="geometry" />
        </mxCell>
        <mxCell id="bSSH-97sY-6J7uN4rARN-8" value="AI evaluation" style="rounded=1;whiteSpace=wrap;html=1;fillColor=#f8cecc;strokeColor=#b85450;" vertex="1" parent="WIyWlLk6GJQsqaUBKTNV-1">
          <mxGeometry x="810" y="400" width="120" height="60" as="geometry" />
        </mxCell>
      </root>
    </mxGraphModel>
  </diagram>
</mxfile>
